<svg xmlns="http://www.w3.org/2000/svg" viewBox="0 0 1920 1080" width="1920" height="1080">
  <defs>
    <linearGradient id="sky" x1="0%" y1="0%" x2="0%" y2="100%">
      <stop offset="0%" style="stop-color:#0a0f1e"/>
      <stop offset="60%" style="stop-color:#1a1040"/>
      <stop offset="100%" style="stop-color:#0d1526"/>
    </linearGradient>
    <linearGradient id="road" x1="0%" y1="0%" x2="0%" y2="100%">
      <stop offset="0%" style="stop-color:#1e293b"/>
      <stop offset="100%" style="stop-color:#0f172a"/>
    </linearGradient>
    <linearGradient id="truck1" x1="0%" y1="0%" x2="100%" y2="100%">
      <stop offset="0%" style="stop-color:#6366f1"/>
      <stop offset="100%" style="stop-color:#4f46e5"/>
    </linearGradient>
    <linearGradient id="truck2" x1="0%" y1="0%" x2="100%" y2="100%">
      <stop offset="0%" style="stop-color:#8b5cf6"/>
      <stop offset="100%" style="stop-color:#7c3aed"/>
    </linearGradient>
    <linearGradient id="truck3" x1="0%" y1="0%" x2="100%" y2="100%">
      <stop offset="0%" style="stop-color:#10b981"/>
      <stop offset="100%" style="stop-color:#059669"/>
    </linearGradient>
    <linearGradient id="glow1" x1="0%" y1="0%" x2="100%" y2="0%">
      <stop offset="0%" style="stop-color:#6366f1;stop-opacity:0"/>
      <stop offset="50%" style="stop-color:#6366f1;stop-opacity:0.3"/>
      <stop offset="100%" style="stop-color:#6366f1;stop-opacity:0"/>
    </linearGradient>
    <filter id="blur1">
      <feGaussianBlur stdDeviation="3"/>
    </filter>
    <filter id="glow">
      <feGaussianBlur stdDeviation="4" result="coloredBlur"/>
      <feMerge><feMergeNode in="coloredBlur"/><feMergeNode in="SourceGraphic"/></feMerge>
    </filter>
    <radialGradient id="spotlight1" cx="30%" cy="80%" r="40%">
      <stop offset="0%" style="stop-color:#6366f1;stop-opacity:0.15"/>
      <stop offset="100%" style="stop-color:#6366f1;stop-opacity:0"/>
    </radialGradient>
    <radialGradient id="spotlight2" cx="70%" cy="90%" r="35%">
      <stop offset="0%" style="stop-color:#8b5cf6;stop-opacity:0.1"/>
      <stop offset="100%" style="stop-color:#8b5cf6;stop-opacity:0"/>
    </radialGradient>
  </defs>

  <!-- Sky background -->
  <rect width="1920" height="1080" fill="url(#sky)"/>

  <!-- Stars -->
  <g opacity="0.6">
    <circle cx="100" cy="50" r="1.5" fill="white" opacity="0.8"/>
    <circle cx="250" cy="30" r="1" fill="white" opacity="0.6"/>
    <circle cx="400" cy="80" r="1.5" fill="white" opacity="0.9"/>
    <circle cx="600" cy="20" r="1" fill="white" opacity="0.7"/>
    <circle cx="750" cy="60" r="2" fill="white" opacity="0.5"/>
    <circle cx="900" cy="40" r="1" fill="white" opacity="0.8"/>
    <circle cx="1100" cy="25" r="1.5" fill="white" opacity="0.6"/>
    <circle cx="1300" cy="70" r="1" fill="white" opacity="0.9"/>
    <circle cx="1500" cy="35" r="1.5" fill="white" opacity="0.7"/>
    <circle cx="1700" cy="55" r="1" fill="white" opacity="0.5"/>
    <circle cx="1850" cy="20" r="2" fill="white" opacity="0.8"/>
    <circle cx="200" cy="120" r="1" fill="white" opacity="0.4"/>
    <circle cx="500" cy="140" r="1.5" fill="white" opacity="0.6"/>
    <circle cx="800" cy="100" r="1" fill="white" opacity="0.7"/>
    <circle cx="1200" cy="130" r="1" fill="white" opacity="0.5"/>
    <circle cx="1600" cy="90" r="1.5" fill="white" opacity="0.8"/>
  </g>

  <!-- City skyline silhouette far back -->
  <g opacity="0.3" fill="#1e293b">
    <rect x="0" y="500" width="80" height="300"/>
    <rect x="70" y="450" width="60" height="350"/>
    <rect x="120" y="480" width="40" height="320"/>
    <rect x="150" y="420" width="70" height="380"/>
    <rect x="210" y="460" width="50" height="340"/>
    <rect x="250" y="400" width="80" height="400"/>
    <rect x="320" y="440" width="45" height="360"/>
    <rect x="360" y="470" width="60" height="330"/>
    <rect x="1400" y="430" width="80" height="370"/>
    <rect x="1470" y="400" width="60" height="400"/>
    <rect x="1520" y="450" width="70" height="350"/>
    <rect x="1580" y="420" width="50" height="380"/>
    <rect x="1620" y="460" width="80" height="340"/>
    <rect x="1690" y="410" width="60" height="390"/>
    <rect x="1740" y="440" width="70" height="360"/>
    <rect x="1800" y="390" width="50" height="410"/>
    <rect x="1840" y="450" width="80" height="350"/>
  </g>

  <!-- City buildings mid -->
  <g opacity="0.5" fill="#0f172a">
    <rect x="0" y="550" width="100" height="530"/>
    <rect x="90" y="500" width="80" height="580"/>
    <rect x="160" y="530" width="60" height="550"/>
    <rect x="210" y="470" width="90" height="610"/>
    <rect x="290" y="510" width="70" height="570"/>
    <rect x="1550" y="490" width="90" height="590"/>
    <rect x="1630" y="520" width="70" height="560"/>
    <rect x="1690" y="480" width="80" height="600"/>
    <rect x="1760" y="510" width="60" height="570"/>
    <rect x="1810" y="460" width="110" height="620"/>
  </g>

  <!-- Building windows lights -->
  <g fill="#6366f1" opacity="0.4">
    <rect x="20" y="560" width="8" height="10" rx="1"/>
    <rect x="35" y="560" width="8" height="10" rx="1"/>
    <rect x="20" y="580" width="8" height="10" rx="1"/>
    <rect x="35" y="600" width="8" height="10" rx="1"/>
    <rect x="100" y="520" width="8" height="10" rx="1"/>
    <rect x="115" y="520" width="8" height="10" rx="1"/>
    <rect x="100" y="545" width="8" height="10" rx="1"/>
    <rect x="220" y="490" width="8" height="10" rx="1"/>
    <rect x="240" y="490" width="8" height="10" rx="1"/>
    <rect x="220" y="515" width="8" height="10" rx="1"/>
    <rect x="240" y="515" width="8" height="10" rx="1"/>
    <rect x="1560" y="510" width="8" height="10" rx="1"/>
    <rect x="1580" y="510" width="8" height="10" rx="1"/>
    <rect x="1560" y="535" width="8" height="10" rx="1"/>
    <rect x="1700" y="495" width="8" height="10" rx="1"/>
    <rect x="1720" y="495" width="8" height="10" rx="1"/>
    <rect x="1700" y="520" width="8" height="10" rx="1"/>
    <rect x="1720" y="520" width="8" height="10" rx="1"/>
    <rect x="1820" y="475" width="8" height="10" rx="1"/>
    <rect x="1840" y="475" width="8" height="10" rx="1"/>
    <rect x="1860" y="475" width="8" height="10" rx="1"/>
  </g>
  <g fill="#10b981" opacity="0.3">
    <rect x="50" y="575" width="8" height="10" rx="1"/>
    <rect x="130" y="545" width="8" height="10" rx="1"/>
    <rect x="260" y="510" width="8" height="10" rx="1"/>
    <rect x="1595" y="530" width="8" height="10" rx="1"/>
    <rect x="1740" y="500" width="8" height="10" rx="1"/>
    <rect x="1875" y="490" width="8" height="10" rx="1"/>
  </g>

  <!-- Spotlights -->
  <rect width="1920" height="1080" fill="url(#spotlight1)"/>
  <rect width="1920" height="1080" fill="url(#spotlight2)"/>

  <!-- Road -->
  <rect x="0" y="750" width="1920" height="330" fill="url(#road)"/>

  <!-- Road center line glow -->
  <rect x="0" y="755" width="1920" height="3" fill="url(#glow1)" opacity="0.5"/>

  <!-- Road markings -->
  <g fill="#334155" opacity="0.6">
    <rect x="0" y="850" width="120" height="6" rx="3"/>
    <rect x="160" y="850" width="120" height="6" rx="3"/>
    <rect x="320" y="850" width="120" height="6" rx="3"/>
    <rect x="480" y="850" width="120" height="6" rx="3"/>
    <rect x="640" y="850" width="120" height="6" rx="3"/>
    <rect x="800" y="850" width="120" height="6" rx="3"/>
    <rect x="960" y="850" width="120" height="6" rx="3"/>
    <rect x="1120" y="850" width="120" height="6" rx="3"/>
    <rect x="1280" y="850" width="120" height="6" rx="3"/>
    <rect x="1440" y="850" width="120" height="6" rx="3"/>
    <rect x="1600" y="850" width="120" height="6" rx="3"/>
    <rect x="1760" y="850" width="120" height="6" rx="3"/>
  </g>

  <!-- TRUCK 1 - Large Purple (foreground) -->
  <g transform="translate(80, 680)" filter="url(#glow)">
    <!-- Trailer -->
    <rect x="0" y="30" width="340" height="130" rx="8" fill="url(#truck1)"/>
    <rect x="5" y="35" width="330" height="120" rx="6" fill="#4f46e5" opacity="0.5"/>
    <!-- Trailer details -->
    <rect x="10" y="45" width="320" height="8" rx="4" fill="#818cf8" opacity="0.4"/>
    <rect x="10" y="125" width="320" height="8" rx="4" fill="#818cf8" opacity="0.4"/>
    <text x="160" y="105" font-family="Arial" font-size="28" font-weight="bold" fill="white" text-anchor="middle" opacity="0.9">FleetMind</text>
    <text x="160" y="125" font-family="Arial" font-size="14" fill="#a5b4fc" text-anchor="middle" opacity="0.8">LOGISTICS</text>
    <!-- Cab -->
    <rect x="290" y="0" width="140" height="120" rx="10" fill="#4338ca"/>
    <rect x="295" y="5" width="130" height="50" rx="8" fill="#312e81" opacity="0.6"/>
    <!-- Windshield -->
    <rect x="300" y="8" width="120" height="45" rx="6" fill="#1e1b4b" opacity="0.8"/>
    <line x1="355" y1="8" x2="355" y2="53" stroke="#6366f1" stroke-width="1.5" opacity="0.5"/>
    <!-- Headlights -->
    <rect x="415" y="45" width="20" height="15" rx="3" fill="#fbbf24"/>
    <rect x="415" y="65" width="20" height="10" rx="2" fill="#f87171"/>
    <!-- Light beam -->
    <polygon points="435,48 480,30 480,65 435,60" fill="#fbbf24" opacity="0.15"/>
    <!-- Wheels -->
    <circle cx="70" cy="165" r="30" fill="#1e293b"/>
    <circle cx="70" cy="165" r="22" fill="#334155"/>
    <circle cx="70" cy="165" r="12" fill="#475569"/>
    <circle cx="70" cy="165" r="4" fill="#6366f1"/>
    <circle cx="160" cy="165" r="30" fill="#1e293b"/>
    <circle cx="160" cy="165" r="22" fill="#334155"/>
    <circle cx="160" cy="165" r="12" fill="#475569"/>
    <circle cx="160" cy="165" r="4" fill="#6366f1"/>
    <circle cx="350" cy="165" r="30" fill="#1e293b"/>
    <circle cx="350" cy="165" r="22" fill="#334155"/>
    <circle cx="350" cy="165" r="12" fill="#475569"/>
    <circle cx="350" cy="165" r="4" fill="#6366f1"/>
    <circle cx="410" cy="165" r="28" fill="#1e293b"/>
    <circle cx="410" cy="165" r="20" fill="#334155"/>
    <circle cx="410" cy="165" r="10" fill="#475569"/>
    <circle cx="410" cy="165" r="4" fill="#4f46e5"/>
    <!-- Exhaust smoke -->
    <circle cx="425" cy="-10" r="12" fill="#475569" opacity="0.3"/>
    <circle cx="430" cy="-28" r="16" fill="#475569" opacity="0.2"/>
    <circle cx="422" cy="-46" r="20" fill="#475569" opacity="0.1"/>
  </g>

  <!-- TRUCK 2 - Green (mid) -->
  <g transform="translate(980, 710)" filter="url(#glow)">
    <!-- Trailer -->
    <rect x="0" y="20" width="280" height="110" rx="8" fill="url(#truck3)"/>
    <rect x="5" y="25" width="270" height="100" rx="6" fill="#059669" opacity="0.5"/>
    <text x="130" y="85" font-family="Arial" font-size="22" font-weight="bold" fill="white" text-anchor="middle" opacity="0.9">FleetMind</text>
    <!-- Cab -->
    <rect x="240" y="0" width="120" height="105" rx="8" fill="#047857"/>
    <rect x="245" y="5" width="110" height="42" rx="6" fill="#065f46" opacity="0.7"/>
    <!-- Windshield -->
    <rect x="248" y="7" width="104" height="38" rx="5" fill="#022c22" opacity="0.8"/>
    <!-- Headlights -->
    <rect x="348" y="38" width="16" height="12" rx="2" fill="#fbbf24"/>
    <polygon points="364,40 400,25 400,55 364,50" fill="#fbbf24" opacity="0.12"/>
    <!-- Wheels -->
    <circle cx="60" cy="140" r="26" fill="#1e293b"/>
    <circle cx="60" cy="140" r="18" fill="#334155"/>
    <circle cx="60" cy="140" r="10" fill="#475569"/>
    <circle cx="60" cy="140" r="3" fill="#10b981"/>
    <circle cx="140" cy="140" r="26" fill="#1e293b"/>
    <circle cx="140" cy="140" r="18" fill="#334155"/>
    <circle cx="140" cy="140" r="10" fill="#475569"/>
    <circle cx="140" cy="140" r="3" fill="#10b981"/>
    <circle cx="290" cy="140" r="26" fill="#1e293b"/>
    <circle cx="290" cy="140" r="18" fill="#334155"/>
    <circle cx="290" cy="140" r="10" fill="#475569"/>
    <circle cx="290" cy="140" r="3" fill="#10b981"/>
    <circle cx="340" cy="140" r="24" fill="#1e293b"/>
    <circle cx="340" cy="140" r="16" fill="#334155"/>
    <circle cx="340" cy="140" r="8" fill="#475569"/>
    <circle cx="340" cy="140" r="3" fill="#059669"/>
  </g>

  <!-- TRUCK 3 - Small Purple (far back, smaller) -->
  <g transform="translate(1500, 730)" opacity="0.7">
    <rect x="0" y="15" width="200" height="85" rx="6" fill="url(#truck2)"/>
    <text x="95" y="65" font-family="Arial" font-size="16" font-weight="bold" fill="white" text-anchor="middle" opacity="0.8">FM</text>
    <rect x="172" y="0" width="90" height="85" rx="6" fill="#7c3aed"/>
    <rect x="175" y="4" width="84" height="32" rx="4" fill="#5b21b6" opacity="0.7"/>
    <rect x="248" y="30" width="12" height="9" rx="2" fill="#fbbf24"/>
    <polygon points="260,32 290,20 290,44 260,39" fill="#fbbf24" opacity="0.1"/>
    <circle cx="40" cy="108" r="20" fill="#1e293b"/>
    <circle cx="40" cy="108" r="14" fill="#334155"/>
    <circle cx="40" cy="108" r="7" fill="#475569"/>
    <circle cx="100" cy="108" r="20" fill="#1e293b"/>
    <circle cx="100" cy="108" r="14" fill="#334155"/>
    <circle cx="100" cy="108" r="7" fill="#475569"/>
    <circle cx="210" cy="108" r="20" fill="#1e293b"/>
    <circle cx="210" cy="108" r="14" fill="#334155"/>
    <circle cx="210" cy="108" r="7" fill="#475569"/>
    <circle cx="248" cy="108" r="18" fill="#1e293b"/>
    <circle cx="248" cy="108" r="12" fill="#334155"/>
    <circle cx="248" cy="108" r="6" fill="#475569"/>
  </g>

  <!-- TRUCK 4 - Tiny (very far back) -->
  <g transform="translate(1780, 745)" opacity="0.4">
    <rect x="0" y="10" width="130" height="60" rx="5" fill="#6366f1"/>
    <rect x="110" y="0" width="60" height="60" rx="5" fill="#4f46e5"/>
    <rect x="160" y="20" width="10" height="8" rx="1" fill="#fbbf24"/>
    <circle cx="25" cy="78" r="14" fill="#1e293b"/>
    <circle cx="25" cy="78" r="9" fill="#334155"/>
    <circle cx="65" cy="78" r="14" fill="#1e293b"/>
    <circle cx="65" cy="78" r="9" fill="#334155"/>
    <circle cx="135" cy="78" r="14" fill="#1e293b"/>
    <circle cx="135" cy="78" r="9" fill="#334155"/>
    <circle cx="160" cy="78" r="12" fill="#1e293b"/>
    <circle cx="160" cy="78" r="8" fill="#334155"/>
  </g>

  <!-- Street lights -->
  <g stroke="#6366f1" stroke-width="2" fill="none" opacity="0.6">
    <line x1="480" y1="600" x2="480" y2="760"/>
    <path d="M480,600 Q500,580 520,580" fill="none"/>
    <circle cx="520" cy="578" r="6" fill="#fbbf24" opacity="0.8"/>
  </g>
  <g stroke="#6366f1" stroke-width="2" fill="none" opacity="0.6">
    <line x1="960" y1="600" x2="960" y2="760"/>
    <path d="M960,600 Q980,580 1000,580" fill="none"/>
    <circle cx="1000" cy="578" r="6" fill="#fbbf24" opacity="0.8"/>
  </g>
  <g stroke="#6366f1" stroke-width="2" fill="none" opacity="0.6">
    <line x1="1440" y1="620" x2="1440" y2="760"/>
    <path d="M1440,620 Q1460,600 1480,600" fill="none"/>
    <circle cx="1480" cy="598" r="5" fill="#fbbf24" opacity="0.8"/>
  </g>

  <!-- Light beams on road from headlights -->
  <polygon points="515,760 460,850 600,850 590,760" fill="#fbbf24" opacity="0.03"/>
  <polygon points="1368,760 1310,850 1440,850 1440,760" fill="#fbbf24" opacity="0.025"/>

  <!-- Purple glow on road -->
  <ellipse cx="350" cy="780" rx="200" ry="30" fill="#6366f1" opacity="0.08"/>
  <ellipse cx="1100" cy="790" rx="160" ry="25" fill="#8b5cf6" opacity="0.06"/>

  <!-- Animated-looking speed lines (motion blur effect) -->
  <g stroke="#6366f1" stroke-width="1" opacity="0.1">
    <line x1="0" y1="800" x2="1920" y2="795"/>
    <line x1="0" y1="810" x2="1920" y2="808"/>
    <line x1="0" y1="820" x2="1920" y2="818"/>
  </g>

  <!-- Overlay gradient for card area -->
  <linearGradient id="overlay" x1="0%" y1="0%" x2="100%" y2="0%">
    <stop offset="0%" style="stop-color:#0a0f1e;stop-opacity:0.3"/>
    <stop offset="40%" style="stop-color:#0a0f1e;stop-opacity:0.7"/>
    <stop offset="60%" style="stop-color:#0a0f1e;stop-opacity:0.7"/>
    <stop offset="100%" style="stop-color:#0a0f1e;stop-opacity:0.3"/>
  </linearGradient>
  <rect width="1920" height="1080" fill="url(#overlay)"/>

  <!-- Top fade -->
  <linearGradient id="topfade" x1="0%" y1="0%" x2="0%" y2="100%">
    <stop offset="0%" style="stop-color:#0a0f1e;stop-opacity:1"/>
    <stop offset="30%" style="stop-color:#0a0f1e;stop-opacity:0"/>
  </linearGradient>
  <rect width="1920" height="300" fill="url(#topfade)"/>

  <!-- Bottom fade -->
  <linearGradient id="bottomfade" x1="0%" y1="0%" x2="0%" y2="100%">
    <stop offset="0%" style="stop-color:#0a0f1e;stop-opacity:0"/>
    <stop offset="100%" style="stop-color:#0a0f1e;stop-opacity:0.9"/>
  </linearGradient>
  <rect y="800" width="1920" height="280" fill="url(#bottomfade)"/>
</svg>